<svg xmlns="http://www.w3.org/2000/svg" width="18" height="24" viewBox="0 0 18 24">
  <defs>
    <style>
      .cls-1 {
        fill-rule: evenodd;
      }
    </style>
  </defs>
  <path id="Forma_1" data-name="Forma 1" class="cls-1" d="M299.129,849.355h-3.747a0.926,0.926,0,0,0,0,1.85h2.847V862.15H283.771V851.205h3.142a0.926,0.926,0,0,0,0-1.85h-4.042a0.939,0.939,0,0,0-.871.971v12.826a0.832,0.832,0,0,0,.871.848h16.258a0.832,0.832,0,0,0,.871-0.848V850.326A0.939,0.939,0,0,0,299.129,849.355Zm-8.277,6.937a0.909,0.909,0,0,0,.886-0.925V842.834l3.777,3.515a0.867,0.867,0,0,0,.59.231,0.88,0.88,0,0,0,.664-0.308,0.957,0.957,0,0,0-.074-1.31l-5.09-4.733a0.861,0.861,0,0,0-1.136-.03,0.908,0.908,0,0,0-.384.37l-4.411,4.424a0.956,0.956,0,0,0-.03,1.31,0.86,0.86,0,0,0,1.254.031l3.069-3.083v12.116A0.909,0.909,0,0,0,290.852,856.292Z" transform="translate(-282 -840)"/>
</svg>
